<svg xmlns="http://www.w3.org/2000/svg" viewBox="0 0 288.76 97.13"><defs><style>.cls-1,.cls-2{font-size:46px;}.cls-1{fill:#00aeef;}.cls-2,.cls-3{fill:#434343;}.cls-4{font-size:18px;fill:#082424;font-family:ProximaNova-Semibold, Proxima Nova;font-weight:700;}</style></defs><title>logo2</title><g id="Layer_2" data-name="Layer 2"><g id="Layer_1-2" data-name="Layer 1"><text class="cls-1" transform="translate(58.53 52.47)">Outsource </text><text class="cls-2" transform="translate(59.34 88.43)">Group</text><path class="cls-3" d="M6.09,30.32a21.81,21.81,0,0,1,22-21.56,21.81,21.81,0,0,1,22,21.56c0,.58,0,1.15-.09,1.72h4.14c0-.57.07-1.14.07-1.72A25.93,25.93,0,0,0,28.1,4.65,25.93,25.93,0,0,0,2,30.32C2,30.9,2,31.47,2,32H6.18C6.14,31.47,6.09,30.9,6.09,30.32Z"/><path class="cls-3" d="M48.94,50.56s-2.36-1-2.31-3.09.47-5,.65-7c.06-.64.16-4.72.29-6a4.09,4.09,0,0,1,3-3.21,3.69,3.69,0,0,1,3.34.64,3.62,3.62,0,0,1,2.06,3c.47,2.44-1.07,13-1.07,13A4.53,4.53,0,0,1,51,50.73Z"/><path class="cls-3" d="M7.12,50.56s2.36-1,2.31-3.09-.47-5-.65-7c-.06-.64-.16-4.72-.29-6a4.09,4.09,0,0,0-3-3.21,3.69,3.69,0,0,0-3.34.64,3.62,3.62,0,0,0-2.06,3c-.47,2.44,1.07,13,1.07,13A4.53,4.53,0,0,0,5,50.73Z"/><path class="cls-3" d="M48.15,49.43s-7.17,15-19.71,14a1.29,1.29,0,0,0-.88-.88c-.74-.23-4.82-1.21-4.82-1.21s-1.74.23-2,1.62a2.76,2.76,0,0,0,.74,2.35l4.86,1.22a2,2,0,0,0,2-1.17S42,67,50.1,50.07Z"/><path class="cls-3" d="M28.1,85.91A18.07,18.07,0,0,1,11.83,75.82H8.14a21.54,21.54,0,0,0,39.93,0h-3.7A18.07,18.07,0,0,1,28.1,85.91Z"/><text class="cls-4" transform="translate(64.46 15)">The</text></g></g></svg>
